<svg width="32" height="32" viewBox="0 0 32 32" fill="none" xmlns="http://www.w3.org/2000/svg">
<rect x="0.5" y="0.5" width="31" height="31" rx="3.5" fill="#172B38"/>
<path d="M12.927 21.6968C12.7229 21.8376 12.4247 21.6999 12.4247 21.4519V21.4519C12.4247 19.9896 12.5315 18.8242 12.7452 17.9556C12.9589 17.0871 13.2753 16.3914 13.6945 15.8685C14.1137 15.3367 14.6274 14.8582 15.2356 14.4328C15.7616 14.0605 16.2301 13.7016 16.6411 13.3559C17.0603 13.0103 17.389 12.6425 17.6274 12.2526C17.874 11.8626 17.9973 11.4195 17.9973 10.9232C17.9973 10.48 17.8986 10.0901 17.7014 9.7533C17.5041 9.41652 17.237 9.15508 16.9 8.96896C16.563 8.78285 16.189 8.68979 15.7781 8.68979C15.3342 8.68979 14.9233 8.80057 14.5452 9.02214C14.1753 9.2437 13.8753 9.54946 13.6452 9.93942C13.5775 10.0583 13.5202 10.183 13.4731 10.3135C13.2858 10.833 12.8646 11.2954 12.3123 11.2954H8.00847C7.45289 11.2954 6.99858 10.8416 7.04638 10.288C7.17544 8.79346 7.57094 7.54727 8.23288 6.54947C9.03836 5.32643 10.1068 4.43131 11.4384 3.8641C12.7699 3.28803 14.2329 3 15.8274 3C17.5863 3 19.1562 3.27917 20.537 3.83752C21.9178 4.387 23.0068 5.22008 23.8041 6.33677C24.6014 7.44459 25 8.83159 25 10.4978C25 11.5701 24.8274 12.514 24.4822 13.3294C24.1452 14.1359 23.6726 14.8493 23.0644 15.4697C22.4644 16.0812 21.7616 16.6395 20.9562 17.1447C20.3644 17.5169 19.8671 17.9025 19.4644 18.3013C19.0616 18.6912 18.7575 19.1388 18.5521 19.644C18.3466 20.1403 18.2438 20.7429 18.2438 21.4519V21.4519C18.2438 21.687 17.9509 21.8124 17.7626 21.6717C16.3438 20.6116 14.4877 20.6199 12.927 21.6968ZM15.4329 29C14.4795 29 13.6616 28.6411 12.9795 27.9232C12.3055 27.1965 11.9726 26.3146 11.9808 25.2777C11.9726 24.2674 12.3055 23.4033 12.9795 22.6854C13.6616 21.9675 14.4795 21.6086 15.4329 21.6086C16.337 21.6086 17.1342 21.9675 17.8247 22.6854C18.5233 23.4033 18.8767 24.2674 18.8849 25.2777C18.8767 25.969 18.7082 26.5982 18.3795 27.1654C18.0589 27.7238 17.6397 28.1713 17.1219 28.5081C16.6041 28.836 16.0411 29 15.4329 29Z" fill="#FF8A1D"/>
<rect x="0.5" y="0.5" width="31" height="31" rx="3.5" stroke="#FF8A1D"/>
</svg>
